<mxfile host="Electron" modified="2024-06-09T08:38:01.475Z" agent="Mozilla/5.0 (Windows NT 10.0; Win64; x64) AppleWebKit/537.36 (KHTML, like Gecko) draw.io/24.2.5 Chrome/120.0.6099.109 Electron/28.1.0 Safari/537.36" etag="Aeo1sd-03ysUDNB-tlDT" version="24.2.5" type="device">
  <diagram name="Page-1" id="bPlEysjbNCah5AzISGG9">
    <mxGraphModel dx="2074" dy="1205" grid="1" gridSize="10" guides="1" tooltips="1" connect="1" arrows="1" fold="1" page="1" pageScale="1" pageWidth="827" pageHeight="1169" math="0" shadow="0">
      <root>
        <mxCell id="0" />
        <mxCell id="1" parent="0" />
        <mxCell id="xhUMMymU4-2fUPHE2oa1-93" value="" style="rounded=0;whiteSpace=wrap;html=1;fillColor=#ffe6cc;strokeColor=#d79b00;" vertex="1" parent="1">
          <mxGeometry x="130" y="450" width="540" height="580" as="geometry" />
        </mxCell>
        <mxCell id="xhUMMymU4-2fUPHE2oa1-1" value="" style="shape=table;startSize=0;container=1;collapsible=0;childLayout=tableLayout;fontSize=16;" vertex="1" parent="1">
          <mxGeometry x="204" y="550" width="314" height="254" as="geometry" />
        </mxCell>
        <mxCell id="xhUMMymU4-2fUPHE2oa1-2" value="" style="shape=tableRow;horizontal=0;startSize=0;swimlaneHead=0;swimlaneBody=0;strokeColor=inherit;top=0;left=0;bottom=0;right=0;collapsible=0;dropTarget=0;fillColor=none;points=[[0,0.5],[1,0.5]];portConstraint=eastwest;fontSize=16;" vertex="1" parent="xhUMMymU4-2fUPHE2oa1-1">
          <mxGeometry width="314" height="43" as="geometry" />
        </mxCell>
        <mxCell id="xhUMMymU4-2fUPHE2oa1-3" value="" style="shape=partialRectangle;html=1;whiteSpace=wrap;connectable=0;strokeColor=#d6b656;overflow=hidden;fillColor=#fff2cc;top=0;left=0;bottom=0;right=0;pointerEvents=1;fontSize=16;" vertex="1" parent="xhUMMymU4-2fUPHE2oa1-2">
          <mxGeometry width="53" height="43" as="geometry">
            <mxRectangle width="53" height="43" as="alternateBounds" />
          </mxGeometry>
        </mxCell>
        <mxCell id="xhUMMymU4-2fUPHE2oa1-4" value="" style="shape=partialRectangle;html=1;whiteSpace=wrap;connectable=0;strokeColor=#d6b656;overflow=hidden;fillColor=#fff2cc;top=0;left=0;bottom=0;right=0;pointerEvents=1;fontSize=16;" vertex="1" parent="xhUMMymU4-2fUPHE2oa1-2">
          <mxGeometry x="53" width="52" height="43" as="geometry">
            <mxRectangle width="52" height="43" as="alternateBounds" />
          </mxGeometry>
        </mxCell>
        <mxCell id="xhUMMymU4-2fUPHE2oa1-5" value="" style="shape=partialRectangle;html=1;whiteSpace=wrap;connectable=0;strokeColor=#b85450;overflow=hidden;fillColor=#f8cecc;top=0;left=0;bottom=0;right=0;pointerEvents=1;fontSize=16;" vertex="1" parent="xhUMMymU4-2fUPHE2oa1-2">
          <mxGeometry x="105" width="53" height="43" as="geometry">
            <mxRectangle width="53" height="43" as="alternateBounds" />
          </mxGeometry>
        </mxCell>
        <mxCell id="xhUMMymU4-2fUPHE2oa1-14" style="shape=partialRectangle;html=1;whiteSpace=wrap;connectable=0;strokeColor=#9673a6;overflow=hidden;fillColor=#e1d5e7;top=0;left=0;bottom=0;right=0;pointerEvents=1;fontSize=16;" vertex="1" parent="xhUMMymU4-2fUPHE2oa1-2">
          <mxGeometry x="158" width="52" height="43" as="geometry">
            <mxRectangle width="52" height="43" as="alternateBounds" />
          </mxGeometry>
        </mxCell>
        <mxCell id="xhUMMymU4-2fUPHE2oa1-22" style="shape=partialRectangle;html=1;whiteSpace=wrap;connectable=0;strokeColor=#d6b656;overflow=hidden;fillColor=#fff2cc;top=0;left=0;bottom=0;right=0;pointerEvents=1;fontSize=16;" vertex="1" parent="xhUMMymU4-2fUPHE2oa1-2">
          <mxGeometry x="210" width="52" height="43" as="geometry">
            <mxRectangle width="52" height="43" as="alternateBounds" />
          </mxGeometry>
        </mxCell>
        <mxCell id="xhUMMymU4-2fUPHE2oa1-26" style="shape=partialRectangle;html=1;whiteSpace=wrap;connectable=0;strokeColor=#d6b656;overflow=hidden;fillColor=#fff2cc;top=0;left=0;bottom=0;right=0;pointerEvents=1;fontSize=16;" vertex="1" parent="xhUMMymU4-2fUPHE2oa1-2">
          <mxGeometry x="262" width="52" height="43" as="geometry">
            <mxRectangle width="52" height="43" as="alternateBounds" />
          </mxGeometry>
        </mxCell>
        <mxCell id="xhUMMymU4-2fUPHE2oa1-6" value="" style="shape=tableRow;horizontal=0;startSize=0;swimlaneHead=0;swimlaneBody=0;strokeColor=inherit;top=0;left=0;bottom=0;right=0;collapsible=0;dropTarget=0;fillColor=none;points=[[0,0.5],[1,0.5]];portConstraint=eastwest;fontSize=16;" vertex="1" parent="xhUMMymU4-2fUPHE2oa1-1">
          <mxGeometry y="43" width="314" height="42" as="geometry" />
        </mxCell>
        <mxCell id="xhUMMymU4-2fUPHE2oa1-7" value="" style="shape=partialRectangle;html=1;whiteSpace=wrap;connectable=0;strokeColor=#d6b656;overflow=hidden;fillColor=#fff2cc;top=0;left=0;bottom=0;right=0;pointerEvents=1;fontSize=16;" vertex="1" parent="xhUMMymU4-2fUPHE2oa1-6">
          <mxGeometry width="53" height="42" as="geometry">
            <mxRectangle width="53" height="42" as="alternateBounds" />
          </mxGeometry>
        </mxCell>
        <mxCell id="xhUMMymU4-2fUPHE2oa1-8" value="" style="shape=partialRectangle;html=1;whiteSpace=wrap;connectable=0;strokeColor=#d6b656;overflow=hidden;fillColor=#fff2cc;top=0;left=0;bottom=0;right=0;pointerEvents=1;fontSize=16;" vertex="1" parent="xhUMMymU4-2fUPHE2oa1-6">
          <mxGeometry x="53" width="52" height="42" as="geometry">
            <mxRectangle width="52" height="42" as="alternateBounds" />
          </mxGeometry>
        </mxCell>
        <mxCell id="xhUMMymU4-2fUPHE2oa1-9" value="" style="shape=partialRectangle;html=1;whiteSpace=wrap;connectable=0;strokeColor=#b85450;overflow=hidden;fillColor=#f8cecc;top=0;left=0;bottom=0;right=0;pointerEvents=1;fontSize=16;" vertex="1" parent="xhUMMymU4-2fUPHE2oa1-6">
          <mxGeometry x="105" width="53" height="42" as="geometry">
            <mxRectangle width="53" height="42" as="alternateBounds" />
          </mxGeometry>
        </mxCell>
        <mxCell id="xhUMMymU4-2fUPHE2oa1-15" style="shape=partialRectangle;html=1;whiteSpace=wrap;connectable=0;strokeColor=#b85450;overflow=hidden;fillColor=#f8cecc;top=0;left=0;bottom=0;right=0;pointerEvents=1;fontSize=16;" vertex="1" parent="xhUMMymU4-2fUPHE2oa1-6">
          <mxGeometry x="158" width="52" height="42" as="geometry">
            <mxRectangle width="52" height="42" as="alternateBounds" />
          </mxGeometry>
        </mxCell>
        <mxCell id="xhUMMymU4-2fUPHE2oa1-23" style="shape=partialRectangle;html=1;whiteSpace=wrap;connectable=0;strokeColor=#d6b656;overflow=hidden;fillColor=#fff2cc;top=0;left=0;bottom=0;right=0;pointerEvents=1;fontSize=16;" vertex="1" parent="xhUMMymU4-2fUPHE2oa1-6">
          <mxGeometry x="210" width="52" height="42" as="geometry">
            <mxRectangle width="52" height="42" as="alternateBounds" />
          </mxGeometry>
        </mxCell>
        <mxCell id="xhUMMymU4-2fUPHE2oa1-27" style="shape=partialRectangle;html=1;whiteSpace=wrap;connectable=0;strokeColor=#d6b656;overflow=hidden;fillColor=#fff2cc;top=0;left=0;bottom=0;right=0;pointerEvents=1;fontSize=16;" vertex="1" parent="xhUMMymU4-2fUPHE2oa1-6">
          <mxGeometry x="262" width="52" height="42" as="geometry">
            <mxRectangle width="52" height="42" as="alternateBounds" />
          </mxGeometry>
        </mxCell>
        <mxCell id="xhUMMymU4-2fUPHE2oa1-10" value="" style="shape=tableRow;horizontal=0;startSize=0;swimlaneHead=0;swimlaneBody=0;strokeColor=inherit;top=0;left=0;bottom=0;right=0;collapsible=0;dropTarget=0;fillColor=none;points=[[0,0.5],[1,0.5]];portConstraint=eastwest;fontSize=16;" vertex="1" parent="xhUMMymU4-2fUPHE2oa1-1">
          <mxGeometry y="85" width="314" height="43" as="geometry" />
        </mxCell>
        <mxCell id="xhUMMymU4-2fUPHE2oa1-11" value="" style="shape=partialRectangle;html=1;whiteSpace=wrap;connectable=0;strokeColor=#b85450;overflow=hidden;fillColor=#f8cecc;top=0;left=0;bottom=0;right=0;pointerEvents=1;fontSize=16;" vertex="1" parent="xhUMMymU4-2fUPHE2oa1-10">
          <mxGeometry width="53" height="43" as="geometry">
            <mxRectangle width="53" height="43" as="alternateBounds" />
          </mxGeometry>
        </mxCell>
        <mxCell id="xhUMMymU4-2fUPHE2oa1-12" value="" style="shape=partialRectangle;html=1;whiteSpace=wrap;connectable=0;strokeColor=#9673a6;overflow=hidden;fillColor=#e1d5e7;top=0;left=0;bottom=0;right=0;pointerEvents=1;fontSize=16;" vertex="1" parent="xhUMMymU4-2fUPHE2oa1-10">
          <mxGeometry x="53" width="52" height="43" as="geometry">
            <mxRectangle width="52" height="43" as="alternateBounds" />
          </mxGeometry>
        </mxCell>
        <mxCell id="xhUMMymU4-2fUPHE2oa1-13" value="" style="shape=partialRectangle;html=1;whiteSpace=wrap;connectable=0;strokeColor=#d6b656;overflow=hidden;fillColor=#fff2cc;top=0;left=0;bottom=0;right=0;pointerEvents=1;fontSize=16;" vertex="1" parent="xhUMMymU4-2fUPHE2oa1-10">
          <mxGeometry x="105" width="53" height="43" as="geometry">
            <mxRectangle width="53" height="43" as="alternateBounds" />
          </mxGeometry>
        </mxCell>
        <mxCell id="xhUMMymU4-2fUPHE2oa1-16" style="shape=partialRectangle;html=1;whiteSpace=wrap;connectable=0;strokeColor=#82b366;overflow=hidden;fillColor=#d5e8d4;top=0;left=0;bottom=0;right=0;pointerEvents=1;fontSize=16;" vertex="1" parent="xhUMMymU4-2fUPHE2oa1-10">
          <mxGeometry x="158" width="52" height="43" as="geometry">
            <mxRectangle width="52" height="43" as="alternateBounds" />
          </mxGeometry>
        </mxCell>
        <mxCell id="xhUMMymU4-2fUPHE2oa1-24" style="shape=partialRectangle;html=1;whiteSpace=wrap;connectable=0;strokeColor=#b85450;overflow=hidden;fillColor=#f8cecc;top=0;left=0;bottom=0;right=0;pointerEvents=1;fontSize=16;" vertex="1" parent="xhUMMymU4-2fUPHE2oa1-10">
          <mxGeometry x="210" width="52" height="43" as="geometry">
            <mxRectangle width="52" height="43" as="alternateBounds" />
          </mxGeometry>
        </mxCell>
        <mxCell id="xhUMMymU4-2fUPHE2oa1-28" style="shape=partialRectangle;html=1;whiteSpace=wrap;connectable=0;strokeColor=#9673a6;overflow=hidden;fillColor=#e1d5e7;top=0;left=0;bottom=0;right=0;pointerEvents=1;fontSize=16;" vertex="1" parent="xhUMMymU4-2fUPHE2oa1-10">
          <mxGeometry x="262" width="52" height="43" as="geometry">
            <mxRectangle width="52" height="43" as="alternateBounds" />
          </mxGeometry>
        </mxCell>
        <mxCell id="xhUMMymU4-2fUPHE2oa1-17" style="shape=tableRow;horizontal=0;startSize=0;swimlaneHead=0;swimlaneBody=0;strokeColor=inherit;top=0;left=0;bottom=0;right=0;collapsible=0;dropTarget=0;fillColor=none;points=[[0,0.5],[1,0.5]];portConstraint=eastwest;fontSize=16;" vertex="1" parent="xhUMMymU4-2fUPHE2oa1-1">
          <mxGeometry y="128" width="314" height="42" as="geometry" />
        </mxCell>
        <mxCell id="xhUMMymU4-2fUPHE2oa1-18" style="shape=partialRectangle;html=1;whiteSpace=wrap;connectable=0;strokeColor=#b85450;overflow=hidden;fillColor=#f8cecc;top=0;left=0;bottom=0;right=0;pointerEvents=1;fontSize=16;" vertex="1" parent="xhUMMymU4-2fUPHE2oa1-17">
          <mxGeometry width="53" height="42" as="geometry">
            <mxRectangle width="53" height="42" as="alternateBounds" />
          </mxGeometry>
        </mxCell>
        <mxCell id="xhUMMymU4-2fUPHE2oa1-19" style="shape=partialRectangle;html=1;whiteSpace=wrap;connectable=0;strokeColor=#b85450;overflow=hidden;fillColor=#f8cecc;top=0;left=0;bottom=0;right=0;pointerEvents=1;fontSize=16;" vertex="1" parent="xhUMMymU4-2fUPHE2oa1-17">
          <mxGeometry x="53" width="52" height="42" as="geometry">
            <mxRectangle width="52" height="42" as="alternateBounds" />
          </mxGeometry>
        </mxCell>
        <mxCell id="xhUMMymU4-2fUPHE2oa1-20" style="shape=partialRectangle;html=1;whiteSpace=wrap;connectable=0;strokeColor=#d6b656;overflow=hidden;fillColor=#fff2cc;top=0;left=0;bottom=0;right=0;pointerEvents=1;fontSize=16;" vertex="1" parent="xhUMMymU4-2fUPHE2oa1-17">
          <mxGeometry x="105" width="53" height="42" as="geometry">
            <mxRectangle width="53" height="42" as="alternateBounds" />
          </mxGeometry>
        </mxCell>
        <mxCell id="xhUMMymU4-2fUPHE2oa1-21" style="shape=partialRectangle;html=1;whiteSpace=wrap;connectable=0;strokeColor=#d6b656;overflow=hidden;fillColor=#fff2cc;top=0;left=0;bottom=0;right=0;pointerEvents=1;fontSize=16;" vertex="1" parent="xhUMMymU4-2fUPHE2oa1-17">
          <mxGeometry x="158" width="52" height="42" as="geometry">
            <mxRectangle width="52" height="42" as="alternateBounds" />
          </mxGeometry>
        </mxCell>
        <mxCell id="xhUMMymU4-2fUPHE2oa1-25" style="shape=partialRectangle;html=1;whiteSpace=wrap;connectable=0;strokeColor=#b85450;overflow=hidden;fillColor=#f8cecc;top=0;left=0;bottom=0;right=0;pointerEvents=1;fontSize=16;" vertex="1" parent="xhUMMymU4-2fUPHE2oa1-17">
          <mxGeometry x="210" width="52" height="42" as="geometry">
            <mxRectangle width="52" height="42" as="alternateBounds" />
          </mxGeometry>
        </mxCell>
        <mxCell id="xhUMMymU4-2fUPHE2oa1-29" style="shape=partialRectangle;html=1;whiteSpace=wrap;connectable=0;strokeColor=#b85450;overflow=hidden;fillColor=#f8cecc;top=0;left=0;bottom=0;right=0;pointerEvents=1;fontSize=16;" vertex="1" parent="xhUMMymU4-2fUPHE2oa1-17">
          <mxGeometry x="262" width="52" height="42" as="geometry">
            <mxRectangle width="52" height="42" as="alternateBounds" />
          </mxGeometry>
        </mxCell>
        <mxCell id="xhUMMymU4-2fUPHE2oa1-30" style="shape=tableRow;horizontal=0;startSize=0;swimlaneHead=0;swimlaneBody=0;strokeColor=inherit;top=0;left=0;bottom=0;right=0;collapsible=0;dropTarget=0;fillColor=none;points=[[0,0.5],[1,0.5]];portConstraint=eastwest;fontSize=16;" vertex="1" parent="xhUMMymU4-2fUPHE2oa1-1">
          <mxGeometry y="170" width="314" height="42" as="geometry" />
        </mxCell>
        <mxCell id="xhUMMymU4-2fUPHE2oa1-31" style="shape=partialRectangle;html=1;whiteSpace=wrap;connectable=0;strokeColor=#d6b656;overflow=hidden;fillColor=#fff2cc;top=0;left=0;bottom=0;right=0;pointerEvents=1;fontSize=16;" vertex="1" parent="xhUMMymU4-2fUPHE2oa1-30">
          <mxGeometry width="53" height="42" as="geometry">
            <mxRectangle width="53" height="42" as="alternateBounds" />
          </mxGeometry>
        </mxCell>
        <mxCell id="xhUMMymU4-2fUPHE2oa1-32" style="shape=partialRectangle;html=1;whiteSpace=wrap;connectable=0;strokeColor=#d6b656;overflow=hidden;fillColor=#fff2cc;top=0;left=0;bottom=0;right=0;pointerEvents=1;fontSize=16;" vertex="1" parent="xhUMMymU4-2fUPHE2oa1-30">
          <mxGeometry x="53" width="52" height="42" as="geometry">
            <mxRectangle width="52" height="42" as="alternateBounds" />
          </mxGeometry>
        </mxCell>
        <mxCell id="xhUMMymU4-2fUPHE2oa1-33" style="shape=partialRectangle;html=1;whiteSpace=wrap;connectable=0;strokeColor=#b85450;overflow=hidden;fillColor=#f8cecc;top=0;left=0;bottom=0;right=0;pointerEvents=1;fontSize=16;" vertex="1" parent="xhUMMymU4-2fUPHE2oa1-30">
          <mxGeometry x="105" width="53" height="42" as="geometry">
            <mxRectangle width="53" height="42" as="alternateBounds" />
          </mxGeometry>
        </mxCell>
        <mxCell id="xhUMMymU4-2fUPHE2oa1-34" style="shape=partialRectangle;html=1;whiteSpace=wrap;connectable=0;strokeColor=#9673a6;overflow=hidden;fillColor=#e1d5e7;top=0;left=0;bottom=0;right=0;pointerEvents=1;fontSize=16;" vertex="1" parent="xhUMMymU4-2fUPHE2oa1-30">
          <mxGeometry x="158" width="52" height="42" as="geometry">
            <mxRectangle width="52" height="42" as="alternateBounds" />
          </mxGeometry>
        </mxCell>
        <mxCell id="xhUMMymU4-2fUPHE2oa1-35" style="shape=partialRectangle;html=1;whiteSpace=wrap;connectable=0;strokeColor=#d6b656;overflow=hidden;fillColor=#fff2cc;top=0;left=0;bottom=0;right=0;pointerEvents=1;fontSize=16;" vertex="1" parent="xhUMMymU4-2fUPHE2oa1-30">
          <mxGeometry x="210" width="52" height="42" as="geometry">
            <mxRectangle width="52" height="42" as="alternateBounds" />
          </mxGeometry>
        </mxCell>
        <mxCell id="xhUMMymU4-2fUPHE2oa1-36" style="shape=partialRectangle;html=1;whiteSpace=wrap;connectable=0;strokeColor=#d6b656;overflow=hidden;fillColor=#fff2cc;top=0;left=0;bottom=0;right=0;pointerEvents=1;fontSize=16;" vertex="1" parent="xhUMMymU4-2fUPHE2oa1-30">
          <mxGeometry x="262" width="52" height="42" as="geometry">
            <mxRectangle width="52" height="42" as="alternateBounds" />
          </mxGeometry>
        </mxCell>
        <mxCell id="xhUMMymU4-2fUPHE2oa1-37" style="shape=tableRow;horizontal=0;startSize=0;swimlaneHead=0;swimlaneBody=0;strokeColor=inherit;top=0;left=0;bottom=0;right=0;collapsible=0;dropTarget=0;fillColor=none;points=[[0,0.5],[1,0.5]];portConstraint=eastwest;fontSize=16;" vertex="1" parent="xhUMMymU4-2fUPHE2oa1-1">
          <mxGeometry y="212" width="314" height="42" as="geometry" />
        </mxCell>
        <mxCell id="xhUMMymU4-2fUPHE2oa1-38" style="shape=partialRectangle;html=1;whiteSpace=wrap;connectable=0;strokeColor=#d6b656;overflow=hidden;fillColor=#fff2cc;top=0;left=0;bottom=0;right=0;pointerEvents=1;fontSize=16;" vertex="1" parent="xhUMMymU4-2fUPHE2oa1-37">
          <mxGeometry width="53" height="42" as="geometry">
            <mxRectangle width="53" height="42" as="alternateBounds" />
          </mxGeometry>
        </mxCell>
        <mxCell id="xhUMMymU4-2fUPHE2oa1-39" style="shape=partialRectangle;html=1;whiteSpace=wrap;connectable=0;strokeColor=#d6b656;overflow=hidden;fillColor=#fff2cc;top=0;left=0;bottom=0;right=0;pointerEvents=1;fontSize=16;" vertex="1" parent="xhUMMymU4-2fUPHE2oa1-37">
          <mxGeometry x="53" width="52" height="42" as="geometry">
            <mxRectangle width="52" height="42" as="alternateBounds" />
          </mxGeometry>
        </mxCell>
        <mxCell id="xhUMMymU4-2fUPHE2oa1-40" style="shape=partialRectangle;html=1;whiteSpace=wrap;connectable=0;strokeColor=#b85450;overflow=hidden;fillColor=#f8cecc;top=0;left=0;bottom=0;right=0;pointerEvents=1;fontSize=16;" vertex="1" parent="xhUMMymU4-2fUPHE2oa1-37">
          <mxGeometry x="105" width="53" height="42" as="geometry">
            <mxRectangle width="53" height="42" as="alternateBounds" />
          </mxGeometry>
        </mxCell>
        <mxCell id="xhUMMymU4-2fUPHE2oa1-41" style="shape=partialRectangle;html=1;whiteSpace=wrap;connectable=0;strokeColor=#b85450;overflow=hidden;fillColor=#f8cecc;top=0;left=0;bottom=0;right=0;pointerEvents=1;fontSize=16;" vertex="1" parent="xhUMMymU4-2fUPHE2oa1-37">
          <mxGeometry x="158" width="52" height="42" as="geometry">
            <mxRectangle width="52" height="42" as="alternateBounds" />
          </mxGeometry>
        </mxCell>
        <mxCell id="xhUMMymU4-2fUPHE2oa1-42" style="shape=partialRectangle;html=1;whiteSpace=wrap;connectable=0;strokeColor=#d6b656;overflow=hidden;fillColor=#fff2cc;top=0;left=0;bottom=0;right=0;pointerEvents=1;fontSize=16;" vertex="1" parent="xhUMMymU4-2fUPHE2oa1-37">
          <mxGeometry x="210" width="52" height="42" as="geometry">
            <mxRectangle width="52" height="42" as="alternateBounds" />
          </mxGeometry>
        </mxCell>
        <mxCell id="xhUMMymU4-2fUPHE2oa1-43" style="shape=partialRectangle;html=1;whiteSpace=wrap;connectable=0;strokeColor=#d6b656;overflow=hidden;fillColor=#fff2cc;top=0;left=0;bottom=0;right=0;pointerEvents=1;fontSize=16;" vertex="1" parent="xhUMMymU4-2fUPHE2oa1-37">
          <mxGeometry x="262" width="52" height="42" as="geometry">
            <mxRectangle width="52" height="42" as="alternateBounds" />
          </mxGeometry>
        </mxCell>
        <mxCell id="xhUMMymU4-2fUPHE2oa1-47" value="" style="shape=table;startSize=0;container=1;collapsible=0;childLayout=tableLayout;fontSize=16;" vertex="1" parent="1">
          <mxGeometry x="204" y="850" width="176" height="40" as="geometry" />
        </mxCell>
        <mxCell id="xhUMMymU4-2fUPHE2oa1-48" value="" style="shape=tableRow;horizontal=0;startSize=0;swimlaneHead=0;swimlaneBody=0;strokeColor=inherit;top=0;left=0;bottom=0;right=0;collapsible=0;dropTarget=0;fillColor=none;points=[[0,0.5],[1,0.5]];portConstraint=eastwest;fontSize=16;" vertex="1" parent="xhUMMymU4-2fUPHE2oa1-47">
          <mxGeometry width="176" height="40" as="geometry" />
        </mxCell>
        <mxCell id="xhUMMymU4-2fUPHE2oa1-49" value="" style="shape=partialRectangle;html=1;whiteSpace=wrap;connectable=0;strokeColor=#9673a6;overflow=hidden;fillColor=#e1d5e7;top=0;left=0;bottom=0;right=0;pointerEvents=1;fontSize=16;" vertex="1" parent="xhUMMymU4-2fUPHE2oa1-48">
          <mxGeometry width="44" height="40" as="geometry">
            <mxRectangle width="44" height="40" as="alternateBounds" />
          </mxGeometry>
        </mxCell>
        <mxCell id="xhUMMymU4-2fUPHE2oa1-50" value="" style="shape=partialRectangle;html=1;whiteSpace=wrap;connectable=0;strokeColor=#9673a6;overflow=hidden;fillColor=#e1d5e7;top=0;left=0;bottom=0;right=0;pointerEvents=1;fontSize=16;" vertex="1" parent="xhUMMymU4-2fUPHE2oa1-48">
          <mxGeometry x="44" width="44" height="40" as="geometry">
            <mxRectangle width="44" height="40" as="alternateBounds" />
          </mxGeometry>
        </mxCell>
        <mxCell id="xhUMMymU4-2fUPHE2oa1-51" value="" style="shape=partialRectangle;html=1;whiteSpace=wrap;connectable=0;strokeColor=#9673a6;overflow=hidden;fillColor=#e1d5e7;top=0;left=0;bottom=0;right=0;pointerEvents=1;fontSize=16;" vertex="1" parent="xhUMMymU4-2fUPHE2oa1-48">
          <mxGeometry x="88" width="44" height="40" as="geometry">
            <mxRectangle width="44" height="40" as="alternateBounds" />
          </mxGeometry>
        </mxCell>
        <mxCell id="xhUMMymU4-2fUPHE2oa1-60" style="shape=partialRectangle;html=1;whiteSpace=wrap;connectable=0;strokeColor=#9673a6;overflow=hidden;fillColor=#e1d5e7;top=0;left=0;bottom=0;right=0;pointerEvents=1;fontSize=16;" vertex="1" parent="xhUMMymU4-2fUPHE2oa1-48">
          <mxGeometry x="132" width="44" height="40" as="geometry">
            <mxRectangle width="44" height="40" as="alternateBounds" />
          </mxGeometry>
        </mxCell>
        <mxCell id="xhUMMymU4-2fUPHE2oa1-69" value="" style="whiteSpace=wrap;html=1;aspect=fixed;fillColor=#d5e8d4;strokeColor=#82b366;" vertex="1" parent="1">
          <mxGeometry x="468" y="847.5" width="45" height="45" as="geometry" />
        </mxCell>
        <mxCell id="xhUMMymU4-2fUPHE2oa1-70" value="&lt;h1 style=&quot;margin-top: 0px;&quot;&gt;+&lt;/h1&gt;" style="text;html=1;whiteSpace=wrap;overflow=hidden;rounded=0;" vertex="1" parent="1">
          <mxGeometry x="414" y="850" width="20" height="40" as="geometry" />
        </mxCell>
        <mxCell id="xhUMMymU4-2fUPHE2oa1-71" value="" style="whiteSpace=wrap;html=1;aspect=fixed;fillColor=#dae8fc;strokeColor=#6c8ebf;" vertex="1" parent="1">
          <mxGeometry x="468" y="940" width="45" height="45" as="geometry" />
        </mxCell>
        <mxCell id="xhUMMymU4-2fUPHE2oa1-72" value="&lt;h1 style=&quot;margin-top: 0px;&quot;&gt;=&lt;/h1&gt;" style="text;html=1;whiteSpace=wrap;overflow=hidden;rounded=0;" vertex="1" parent="1">
          <mxGeometry x="414" y="942.5" width="20" height="40" as="geometry" />
        </mxCell>
        <mxCell id="xhUMMymU4-2fUPHE2oa1-75" value="" style="html=1;shadow=0;dashed=0;align=center;verticalAlign=middle;shape=mxgraph.arrows2.sharpArrow;dy1=0.67;dx1=18;dx2=18;notch=0;fillColor=#f5f5f5;fontColor=#333333;strokeColor=#666666;" vertex="1" parent="1">
          <mxGeometry x="400" y="640" width="90" height="30" as="geometry" />
        </mxCell>
        <mxCell id="xhUMMymU4-2fUPHE2oa1-76" value="" style="html=1;shadow=0;dashed=0;align=center;verticalAlign=middle;shape=mxgraph.arrows2.sharpArrow;dy1=0.67;dx1=18;dx2=18;notch=0;fillColor=#f5f5f5;fontColor=#333333;strokeColor=#666666;direction=west;" vertex="1" parent="1">
          <mxGeometry x="280" y="640" width="90" height="30" as="geometry" />
        </mxCell>
        <mxCell id="xhUMMymU4-2fUPHE2oa1-77" value="" style="html=1;shadow=0;dashed=0;align=center;verticalAlign=middle;shape=mxgraph.arrows2.sharpArrow;dy1=0.67;dx1=18;dx2=18;notch=0;fillColor=#f5f5f5;fontColor=#333333;strokeColor=#666666;direction=north;" vertex="1" parent="1">
          <mxGeometry x="370" y="560" width="30" height="90" as="geometry" />
        </mxCell>
        <mxCell id="xhUMMymU4-2fUPHE2oa1-78" value="" style="html=1;shadow=0;dashed=0;align=center;verticalAlign=middle;shape=mxgraph.arrows2.sharpArrow;dy1=0.67;dx1=18;dx2=18;notch=0;fillColor=#f5f5f5;fontColor=#333333;strokeColor=#666666;direction=south;" vertex="1" parent="1">
          <mxGeometry x="370" y="660" width="30" height="90" as="geometry" />
        </mxCell>
        <mxCell id="xhUMMymU4-2fUPHE2oa1-79" value="" style="shape=curlyBracket;whiteSpace=wrap;html=1;rounded=1;flipH=1;labelPosition=right;verticalLabelPosition=middle;align=left;verticalAlign=middle;direction=south;" vertex="1" parent="1">
          <mxGeometry x="204" y="520" width="106" height="20" as="geometry" />
        </mxCell>
        <mxCell id="xhUMMymU4-2fUPHE2oa1-80" value="Probe(0,0)" style="text;html=1;align=center;verticalAlign=middle;whiteSpace=wrap;rounded=0;" vertex="1" parent="1">
          <mxGeometry x="220" y="490" width="60" height="30" as="geometry" />
        </mxCell>
        <mxCell id="xhUMMymU4-2fUPHE2oa1-81" value="" style="shape=curlyBracket;whiteSpace=wrap;html=1;rounded=1;flipH=1;labelPosition=right;verticalLabelPosition=middle;align=left;verticalAlign=middle;direction=south;" vertex="1" parent="1">
          <mxGeometry x="310" y="520" width="106" height="20" as="geometry" />
        </mxCell>
        <mxCell id="xhUMMymU4-2fUPHE2oa1-82" value="Probe(0,1)" style="text;html=1;align=center;verticalAlign=middle;whiteSpace=wrap;rounded=0;" vertex="1" parent="1">
          <mxGeometry x="326" y="490" width="60" height="30" as="geometry" />
        </mxCell>
        <mxCell id="xhUMMymU4-2fUPHE2oa1-83" value="" style="shape=curlyBracket;whiteSpace=wrap;html=1;rounded=1;flipH=1;labelPosition=right;verticalLabelPosition=middle;align=left;verticalAlign=middle;direction=south;" vertex="1" parent="1">
          <mxGeometry x="416" y="520" width="104" height="20" as="geometry" />
        </mxCell>
        <mxCell id="xhUMMymU4-2fUPHE2oa1-84" value="Probe(0,2)" style="text;html=1;align=center;verticalAlign=middle;whiteSpace=wrap;rounded=0;" vertex="1" parent="1">
          <mxGeometry x="432" y="490" width="60" height="30" as="geometry" />
        </mxCell>
        <mxCell id="xhUMMymU4-2fUPHE2oa1-85" value="" style="shape=curlyBracket;whiteSpace=wrap;html=1;rounded=1;flipH=1;labelPosition=right;verticalLabelPosition=middle;align=left;verticalAlign=middle;" vertex="1" parent="1">
          <mxGeometry x="530" y="550" width="20" height="80" as="geometry" />
        </mxCell>
        <mxCell id="xhUMMymU4-2fUPHE2oa1-86" value="Probe(0,2)" style="text;html=1;align=center;verticalAlign=middle;whiteSpace=wrap;rounded=0;" vertex="1" parent="1">
          <mxGeometry x="570" y="575" width="60" height="30" as="geometry" />
        </mxCell>
        <mxCell id="xhUMMymU4-2fUPHE2oa1-89" value="" style="shape=curlyBracket;whiteSpace=wrap;html=1;rounded=1;flipH=1;labelPosition=right;verticalLabelPosition=middle;align=left;verticalAlign=middle;" vertex="1" parent="1">
          <mxGeometry x="530" y="640" width="20" height="80" as="geometry" />
        </mxCell>
        <mxCell id="xhUMMymU4-2fUPHE2oa1-90" value="Probe(1,2)" style="text;html=1;align=center;verticalAlign=middle;whiteSpace=wrap;rounded=0;" vertex="1" parent="1">
          <mxGeometry x="570" y="665" width="60" height="30" as="geometry" />
        </mxCell>
        <mxCell id="xhUMMymU4-2fUPHE2oa1-91" value="" style="shape=curlyBracket;whiteSpace=wrap;html=1;rounded=1;flipH=1;labelPosition=right;verticalLabelPosition=middle;align=left;verticalAlign=middle;" vertex="1" parent="1">
          <mxGeometry x="530" y="724" width="20" height="80" as="geometry" />
        </mxCell>
        <mxCell id="xhUMMymU4-2fUPHE2oa1-92" value="Probe(3,2)" style="text;html=1;align=center;verticalAlign=middle;whiteSpace=wrap;rounded=0;" vertex="1" parent="1">
          <mxGeometry x="570" y="749" width="60" height="30" as="geometry" />
        </mxCell>
      </root>
    </mxGraphModel>
  </diagram>
</mxfile>
